# ProBuilder 5.0.3
# https://unity3d.com/unity/features/worldbuilding/probuilder
# 31.01.2022 09:41:59

mtllib ./Hocker.mtl
o Hocker

g Hocker
v 0.5944678 0.076455 -0.1196605
v 0.1539177 0.076455 -0.1196605
v 0.5944678 0.517005 -0.1196606
v 0.1539177 0.517005 -0.1196606
v 0.1221928 0.0741213 -0.1531783
v 0.1221928 0.07412131 -0.5983955
v 0.1221928 0.5193388 -0.1531785
v 0.1221928 0.5193388 -0.5983956
v 0.1548504 0.0773877 -0.6277868
v 0.5935351 0.0773877 -0.6277868
v 0.1548504 0.5160724 -0.6277869
v 0.5935351 0.5160724 -0.6277869
v 0.6261927 0.07616408 -0.5963527
v 0.6261927 0.07616407 -0.1552211
v 0.6261927 0.517296 -0.5963528
v 0.6261927 0.517296 -0.1552213
v 0.5940841 0.54873 -0.1558955
v 0.1543015 0.54873 -0.1558955
v 0.5940841 0.54873 -0.5956786
v 0.1543015 0.54873 -0.5956786
v 0.6241928 0.54673 -0.1257869
v 0.6241928 0.04673004 -0.1257869
v 0.1241928 0.04673004 -0.1257869
v 0.1241928 0.54673 -0.1257869
v 0.6241928 0.54673 -0.6257869
v 0.6241928 0.04673004 -0.6257869
v 0.1241928 0.54673 -0.6257869
v 0.1241928 0.04673004 -0.6257869
v 0.3741928 0.04673004 -0.6257869
v 0.3741928 0.04673004 -0.5007869
v 0.4991928 0.04673004 -0.5007869
v 0.4991928 0.04673004 -0.6257869
v 0.3741928 0.04673004 -0.3757869
v 0.4991928 0.04673004 -0.3757869
v 0.6241928 0.04673004 -0.5007869
v 0.6241928 0.02173004 -0.5007869
v 0.6241928 0.02173004 -0.6257869
v 0.4991928 0.02173004 -0.6257869
v 0.4991928 0.02173004 -0.5007869
v 0.1241928 0.02173004 -0.6257869
v 0.1241928 0.02173004 -0.5007869
v 0.2491928 0.02173004 -0.5007869
v 0.2491928 0.02173004 -0.6257869
v 0.1241928 0.04673004 -0.5007869
v 0.1241928 0.04673004 -0.3757869
v 0.2491928 0.04673004 -0.3757869
v 0.2491928 0.04673004 -0.5007869
v 0.2491928 0.04673004 -0.6257869
v 0.1241928 0.04673004 -0.2507869
v 0.2491928 0.04673004 -0.2507869
v 0.1241928 0.02173004 -0.2507869
v 0.1241928 0.02173004 -0.1257869
v 0.2491928 0.02173004 -0.1257869
v 0.2491928 0.02173004 -0.2507869
v 0.2491928 0.04673004 -0.1257869
v 0.3741928 0.04673004 -0.1257869
v 0.3741928 0.04673004 -0.2507869
v 0.4991928 0.04673004 -0.2507869
v 0.4991928 0.04673004 -0.1257869
v 0.4991928 0.02173004 -0.1257869
v 0.6241928 0.02173004 -0.1257869
v 0.6241928 0.02173004 -0.2507869
v 0.4991928 0.02173004 -0.2507869
v 0.6241928 0.04673004 -0.2507869
v 0.6241928 0.04673004 -0.3757869

vt 0.5944678 0.07645505
vt 0.1539177 0.07645505
vt 0.5944678 0.5170051
vt 0.1539177 0.5170051
vt -0.1531783 0.0741213
vt -0.5983955 0.07412131
vt -0.1531785 0.5193388
vt -0.5983956 0.5193388
vt -0.1548504 0.07738787
vt -0.5935351 0.07738787
vt -0.1548504 0.5160726
vt -0.5935351 0.5160726
vt 0.5963527 0.07616408
vt 0.1552211 0.07616407
vt 0.5963528 0.517296
vt 0.1552213 0.517296
vt -0.5940841 -0.1558955
vt -0.1543015 -0.1558955
vt -0.5940841 -0.5956786
vt -0.1543015 -0.5956786
vt 0.6367347 0.54673
vt 0.6367347 0.04673004
vt 0.6063851 0.517005
vt 0.606385 0.076455
vt 0.09624473 0.04673004
vt 0.09624473 0.54673
vt 0.1265945 0.076455
vt 0.1265944 0.517005
vt 0.1241928 0.5608666
vt 0.6241928 0.5608666
vt 0.1539177 0.5305168
vt 0.5944678 0.5305168
vt 0.5820324 0.54673
vt 0.5820324 0.04673004
vt 0.5525305 0.517296
vt 0.5525304 0.07616408
vt 0.1678122 0.04673004
vt 0.1678122 0.54673
vt 0.1973142 0.07616407
vt 0.1973144 0.517296
vt 0.1257869 0.5031574
vt 0.6257869 0.5031574
vt 0.1552213 0.4736555
vt 0.5963528 0.4736555
vt -0.6241928 -0.1617472
vt -0.1241928 -0.1617472
vt -0.5940841 -0.1919221
vt -0.1543015 -0.1919221
vt -0.5865835 -0.6257869
vt -0.5865835 -0.1257869
vt -0.5564085 -0.5956786
vt -0.5564085 -0.1558955
vt -0.1601564 -0.1257869
vt -0.1601564 -0.6257869
vt -0.1903315 -0.1558955
vt -0.1903315 -0.5956786
vt -0.1241928 -0.5881736
vt -0.6241928 -0.5881736
vt -0.1543015 -0.557999
vt -0.5940841 -0.557999
vt -0.1646664 0.54673
vt -0.1646664 0.04673004
vt -0.1953892 0.5160724
vt -0.1953892 0.0773877
vt -0.5821343 0.04673004
vt -0.5821343 0.54673
vt -0.5514115 0.0773877
vt -0.5514115 0.5160724
vt -0.6241928 0.5048333
vt -0.1241928 0.5048333
vt -0.5935351 0.4741105
vt -0.1548504 0.4741105
vt -0.1164092 0.54673
vt -0.1164092 0.04673004
vt -0.1438737 0.5193388
vt -0.1438735 0.0741213
vt -0.6331693 0.04673004
vt -0.6331693 0.54673
vt -0.6057049 0.07412131
vt -0.605705 0.5193388
vt -0.6257869 0.5543224
vt -0.1257869 0.5543224
vt -0.5983956 0.5268582
vt -0.1531785 0.5268582
vt 0.3741928 -0.6257869
vt 0.3741928 -0.5007869
vt 0.4991928 -0.5007869
vt 0.4991928 -0.6257869
vt 0.3741928 -0.3757869
vt 0.4991928 -0.3757869
vt 0.6241928 -0.5007869
vt 0.6241928 -0.6257869
vt 0.1241928 -0.6257869
vt 0.1241928 -0.5007869
vt 0.2491928 -0.5007869
vt 0.2491928 -0.6257869
vt 0.1241928 -0.3757869
vt 0.2491928 -0.3757869
vt 0.1241928 -0.2507869
vt 0.2491928 -0.2507869
vt 0.1241928 -0.1257869
vt 0.2491928 -0.1257869
vt 0.3741928 -0.1257869
vt 0.3741928 -0.2507869
vt 0.4991928 -0.2507869
vt 0.4991928 -0.1257869
vt 0.6241928 -0.1257869
vt 0.6241928 -0.2507869
vt 0.6241928 -0.3757869
vt 0.6241928 0.02037664
vt 0.4991928 0.02037664
vt 0.3741928 0.02037664
vt 0.2491928 0.02037664
vt 0.1241928 0.02037664
vt 0.1539177 0.05072637
vt 0.5944678 0.05072637
vt 0.5963527 0.1184393
vt 0.6257869 0.08893742
vt 0.5007869 0.08893742
vt 0.3757869 0.08893742
vt 0.2507869 0.08893742
vt 0.1257869 0.08893742
vt 0.1552211 0.1184393
vt -0.1548504 0.1180884
vt -0.1241928 0.08736559
vt -0.2491928 0.08736559
vt -0.3741928 0.08736559
vt -0.4991928 0.08736559
vt -0.6241928 0.08736559
vt -0.5935351 0.1180884
vt -0.1257869 0.03756211
vt -0.2507869 0.03756211
vt -0.3757869 0.03756211
vt -0.5007869 0.03756211
vt -0.6257869 0.03756211
vt -0.5983955 0.0650263
vt -0.1531783 0.06502628
vt -0.6257869 0.04673004
vt -0.5007869 0.04673004
vt -0.6257869 0.02173004
vt -0.5007869 0.02173004
vt 0.1241928 0.04673004
vt 0.2491928 0.04673004
vt 0.1241928 0.02173004
vt 0.2491928 0.02173004
vt 0.5007869 0.04673004
vt 0.6257869 0.04673004
vt 0.5007869 0.02173004
vt 0.6257869 0.02173004
vt -0.2491928 0.04673004
vt -0.1241928 0.04673004
vt -0.2491928 0.02173004
vt -0.1241928 0.02173004
vt -0.2507869 0.04673004
vt -0.1257869 0.04673004
vt -0.2507869 0.02173004
vt -0.1257869 0.02173004
vt 0.1257869 0.04673004
vt 0.2507869 0.04673004
vt 0.1257869 0.02173004
vt 0.2507869 0.02173004
vt 0.4991928 0.04673004
vt 0.6241928 0.04673004
vt 0.4991928 0.02173004
vt 0.6241928 0.02173004
vt -0.6241928 0.04673004
vt -0.4991928 0.04673004
vt -0.6241928 0.02173004
vt -0.4991928 0.02173004

vn 0 3.551519E-07 1
vn -1 0 0
vn 0 -2.717425E-07 -1
vn 1 0 0
vn 0 1 0
vn 0.2018558 0 0.9794152
vn -0.2018607 0 0.9794142
vn 0 0.2018554 0.9794154
vn 0.9976995 0 -0.06779125
vn 0.9976996 0 0.06779101
vn 0.9976995 0.06779139 0
vn 0 0.9978011 0.06627928
vn 0.06627909 0.9978011 0
vn -0.06627896 0.9978011 0
vn 0 0.9978011 -0.06628001
vn -0.06509736 0 -0.9978789
vn 0.0650935 0 -0.9978792
vn 0 0.06509736 -0.9978789
vn -0.9973451 0 0.07282035
vn -0.997345 0 -0.07282074
vn -0.997345 0.07282121 0
vn 0 -1 0
vn 0 -0.2018607 0.9794142
vn 0.9976995 -0.06779135 -7.633172E-10
vn 0 -0.06509349 -0.9978792
vn -0.997345 -0.07282121 0

usemtl wood_1
f 37/92/22 36/91/22 39/87/22 38/88/22
f 43/96/22 42/95/22 41/94/22 40/93/22
f 54/100/22 53/102/22 52/101/22 51/99/22
f 62/108/22 61/107/22 60/106/22 63/105/22
f 40/140/2 41/141/2 44/139/2 28/138/2
f 41/144/1 42/145/1 47/143/1 44/142/1
f 42/148/4 43/149/4 48/147/4 47/146/4
f 43/152/3 40/153/3 28/151/3 48/150/3
f 51/156/2 52/157/2 23/155/2 49/154/2
f 52/144/1 53/145/1 55/143/1 23/142/1
f 53/160/4 54/161/4 50/159/4 55/158/4
f 54/152/3 51/153/3 49/151/3 50/150/3
f 63/156/2 60/157/2 59/155/2 58/154/2
f 60/164/1 61/165/1 22/163/1 59/162/1
f 61/160/4 62/161/4 64/159/4 22/158/4
f 62/168/3 63/169/3 58/167/3 64/166/3
f 38/140/2 39/141/2 31/139/2 32/138/2
f 39/164/1 36/165/1 35/163/1 31/162/1
f 36/148/4 37/149/4 26/147/4 35/146/4
f 37/168/3 38/169/3 32/167/3 26/166/3

usemtl M_Stoff
f 1/116/23 59/111/23 22/110/23
f 56/112/23 59/111/23 1/116/23
f 1/116/23 2/115/23 56/112/23
f 2/115/23 55/113/23 56/112/23
f 2/115/23 23/114/23 55/113/23
f 35/119/24 26/118/24 13/117/24
f 65/120/24 35/119/24 13/117/24
f 65/120/24 13/117/24 14/123/24
f 64/121/24 65/120/24 14/123/24
f 22/122/24 64/121/24 14/123/24
f 48/126/25 28/125/25 9/124/25
f 29/127/25 48/126/25 9/124/25
f 29/127/25 9/124/25 10/130/25
f 10/130/25 32/128/25 29/127/25
f 26/129/25 32/128/25 10/130/25
f 5/137/26 49/132/26 23/131/26
f 5/137/26 45/133/26 49/132/26
f 5/137/26 6/136/26 45/133/26
f 6/136/26 44/134/26 45/133/26
f 6/136/26 28/135/26 44/134/26
f 33/89/22 30/86/22 34/90/22
f 30/86/22 31/87/22 34/90/22
f 46/98/22 47/95/22 33/89/22
f 47/95/22 30/86/22 33/89/22
f 50/100/22 46/98/22 57/104/22
f 46/98/22 33/89/22 57/104/22
f 57/104/22 33/89/22 58/105/22
f 33/89/22 34/90/22 58/105/22
f 58/105/22 34/90/22 64/108/22
f 34/90/22 65/109/22 64/108/22
f 34/90/22 31/87/22 65/109/22
f 31/87/22 35/91/22 65/109/22
f 30/86/22 29/85/22 31/87/22
f 29/85/22 32/88/22 31/87/22
f 47/95/22 48/96/22 30/86/22
f 48/96/22 29/85/22 30/86/22
f 45/97/22 44/94/22 46/98/22
f 44/94/22 47/95/22 46/98/22
f 49/99/22 45/97/22 50/100/22
f 45/97/22 46/98/22 50/100/22
f 55/102/22 50/100/22 56/103/22
f 50/100/22 57/104/22 56/103/22
f 56/103/22 57/104/22 59/106/22
f 57/104/22 58/105/22 59/106/22
f 4/4/1 2/2/1 1/1/1
f 1/1/1 3/3/1 4/4/1
f 8/8/2 6/6/2 5/5/2
f 5/5/2 7/7/2 8/8/2
f 12/12/3 10/10/3 9/9/3
f 9/9/3 11/11/3 12/12/3
f 16/16/4 14/14/4 13/13/4
f 13/13/4 15/15/4 16/16/4
f 20/20/5 18/18/5 17/17/5
f 17/17/5 19/19/5 20/20/5
f 1/24/6 22/22/6 21/21/6
f 21/21/6 3/23/6 1/24/6
f 4/28/7 24/26/7 23/25/7
f 23/25/7 2/27/7 4/28/7
f 3/32/8 21/30/8 24/29/8
f 24/29/8 4/31/8 3/32/8
f 13/36/9 26/34/9 25/33/9
f 25/33/9 15/35/9 13/36/9
f 16/40/10 21/38/10 22/37/10
f 22/37/10 14/39/10 16/40/10
f 15/44/11 25/42/11 21/41/11
f 21/41/11 16/43/11 15/44/11
f 18/48/12 24/46/12 21/45/12
f 21/45/12 17/47/12 18/48/12
f 17/52/13 21/50/13 25/49/13
f 25/49/13 19/51/13 17/52/13
f 20/56/14 27/54/14 24/53/14
f 24/53/14 18/55/14 20/56/14
f 19/60/15 25/58/15 27/57/15
f 27/57/15 20/59/15 19/60/15
f 9/64/16 28/62/16 27/61/16
f 27/61/16 11/63/16 9/64/16
f 12/68/17 25/66/17 26/65/17
f 26/65/17 10/67/17 12/68/17
f 11/72/18 27/70/18 25/69/18
f 25/69/18 12/71/18 11/72/18
f 5/76/19 23/74/19 24/73/19
f 24/73/19 7/75/19 5/76/19
f 8/80/20 27/78/20 28/77/20
f 28/77/20 6/79/20 8/80/20
f 7/84/21 24/82/21 27/81/21
f 27/81/21 8/83/21 7/84/21

